<?xml version="1.0" encoding="UTF-8"?>
<svg width="11px" height="16px" viewBox="0 0 11 16" version="1.1" xmlns="http://www.w3.org/2000/svg" xmlns:xlink="http://www.w3.org/1999/xlink">
    <!-- Generator: Sketch 45.2 (43514) - http://www.bohemiancoding.com/sketch -->
    <title>Icon/Fork: Green</title>
    <desc>Created with Sketch.</desc>
    <defs></defs>
    <g id="Style-guide" stroke="none" stroke-width="1" fill="none" fill-rule="evenodd">
        <g transform="translate(-685.000000, -246.000000)" id="Icon/Fork:-Green">
            <g transform="translate(682.000000, 246.000000)">
                <rect id="bkgd:-fork" x="0" y="0" width="16" height="16"></rect>
                <path d="M13.8666667,4.8 C13.8666667,3.61653333 12.9168,2.66666667 11.7333333,2.66666667 C10.5498667,2.66666667 9.6,3.61653333 9.6,4.8 C9.6,5.58346667 10.0336,6.26666667 10.6666667,6.6336 L10.6666667,6.9504 C10.6501333,7.50026667 10.4165333,8.00053333 10,8.41706667 C9.58346667,8.8336 9.0832,9.0672 8.53333333,9.08373333 C7.65013333,9.10026667 6.94986667,9.25066667 6.4,9.56693333 L6.4,4.50026667 C7.0336,4.13333333 7.46666667,3.45013333 7.46666667,2.66666667 C7.46666667,1.4832 6.5168,0.533333333 5.33333333,0.533333333 C4.14986667,0.533333333 3.2,1.4832 3.2,2.66666667 C3.2,3.45013333 3.6336,4.13333333 4.26666667,4.50026667 L4.26666667,11.5002667 C3.63306667,11.8672 3.2,12.5504 3.2,13.3338667 C3.2,14.5173333 4.14986667,15.4672 5.33333333,15.4672 C6.5168,15.4672 7.46666667,14.5173333 7.46666667,13.3338667 C7.46666667,12.7669333 7.25013333,12.2672 6.89973333,11.8837333 C7,11.8170667 7.41653333,11.4501333 7.53333333,11.3834667 C7.8,11.2666667 8.13333333,11.2 8.53333333,11.2 C9.65013333,11.1498667 10.6165333,10.7168 11.4666667,9.86666667 C12.3168,9.01653333 12.7498667,7.74986667 12.8,6.65013333 L12.7834667,6.65013333 C13.4336,6.26666667 13.8666667,5.58346667 13.8666667,4.8 L13.8666667,4.8 Z M5.33333333,1.38346667 C6.0336,1.38346667 6.61653333,1.96693333 6.61653333,2.66666667 C6.61653333,3.3664 6.03306667,3.94986667 5.33333333,3.94986667 C4.6336,3.94986667 4.05013333,3.3664 4.05013333,2.66666667 C4.05013333,1.96693333 4.6336,1.38346667 5.33333333,1.38346667 L5.33333333,1.38346667 Z M5.33333333,14.6165333 C4.63306667,14.6165333 4.05013333,14.0330667 4.05013333,13.3333333 C4.05013333,12.6336 4.6336,12.0501333 5.33333333,12.0501333 C6.03306667,12.0501333 6.61653333,12.6336 6.61653333,13.3333333 C6.61653333,14.0330667 6.03306667,14.6165333 5.33333333,14.6165333 L5.33333333,14.6165333 Z M11.7333333,6.0832 C11.0330667,6.0832 10.4501333,5.49973333 10.4501333,4.8 C10.4501333,4.10026667 11.0336,3.5168 11.7333333,3.5168 C12.4330667,3.5168 13.0165333,4.10026667 13.0165333,4.8 C13.0165333,5.49973333 12.4330667,6.0832 11.7333333,6.0832 L11.7333333,6.0832 Z" id="Fork" fill="#3AC0A7" fill-rule="evenodd" opacity="0.5"></path>
            </g>
        </g>
    </g>
</svg>