<?xml version="1.0" encoding="UTF-8"?>
<svg width="25px" height="24px" viewBox="0 0 25 24" version="1.1" xmlns="http://www.w3.org/2000/svg" xmlns:xlink="http://www.w3.org/1999/xlink">
    <!-- Generator: Sketch 45.2 (43514) - http://www.bohemiancoding.com/sketch -->
    <title>Icon/Logo: Relativity</title>
    <desc>Created with Sketch.</desc>
    <defs></defs>
    <g id="Style-guide" stroke="none" stroke-width="1" fill="none" fill-rule="evenodd">
        <g transform="translate(-387.000000, -196.000000)" id="Icon/Logo:-Relativity" fill="#F7F6F1">
            <g transform="translate(387.000000, 196.000000)">
                <path d="M8.17935,0 L8.17935,7.8522 L0,7.8522 L0,24 L16.820625,24 L16.820625,16.147776 L25,16.147776 L25,0 L8.17935,0 Z M10.334825,2.069256 L22.8445,2.069256 L22.8445,14.078544 L16.820625,14.078544 L16.820625,7.8522 L10.334825,7.8522 L10.334825,2.069256 Z M10.334825,14.07852 L14.665125,14.07852 L14.665125,9.921456 L10.334825,9.921456 L10.334825,14.07852 Z M2.155475,9.921456 L8.17935,9.921456 L8.17935,16.147776 L14.665125,16.147776 L14.665125,21.930744 L2.155475,21.930744 L2.155475,9.921456 Z" id="logo:-relativity"></path>
            </g>
        </g>
    </g>
</svg>